<svg width="267" height="52" viewBox="0 0 267 52" fill="none" xmlns="http://www.w3.org/2000/svg">
<path d="M44.8 51.486L1.56281e-05 51.486L1.52588e-05 43.038L37.12 43.038V22.558H44.8V51.486Z" fill="#F5D245"/>
<path d="M44.8 36.864H37.376V30.976L7.424 30.976V36.864H1.00711e-06L0 13.824C-1.19361e-07 11.0933 0.469333 8.72534 1.408 6.72C2.304 4.672 3.60533 3.09334 5.312 1.984C6.976 0.832002 8.98133 0.256002 11.328 0.256001L11.968 0.256001C14.016 0.256001 15.7013 0.640001 17.024 1.408C18.304 2.176 19.3067 3.09333 20.032 4.16C20.7147 5.184 21.2053 6.16533 21.504 7.104H22.656C22.912 6.16533 23.4027 5.14133 24.128 4.032C24.8107 2.92267 25.8133 1.984 27.136 1.216C28.4587 0.405333 30.1867 1.21226e-07 32.32 2.79753e-08L32.96 0C35.4347 -1.08171e-07 37.568 0.576 39.36 1.728C41.1093 2.88 42.4533 4.48 43.392 6.528C44.3307 8.53333 44.8 10.88 44.8 13.568V36.864ZM37.12 22.528V14.592C37.12 12.7573 36.672 11.2853 35.776 10.176C34.88 9.024 33.6 8.448 31.936 8.448H31.296C29.632 8.448 28.352 9.00267 27.456 10.112C26.56 11.2213 26.112 12.7147 26.112 14.592V22.528H37.12ZM18.432 22.528V14.72C18.432 12.9707 17.984 11.5413 17.088 10.432C16.192 9.28 14.9547 8.704 13.376 8.704H12.736C11.1147 8.704 9.87733 9.25867 9.024 10.368C8.128 11.4773 7.68 12.928 7.68 14.72L7.68 22.528L18.432 22.528Z" fill="#E0AE24"/>
<path d="M62.6158 36.743V33.031H65.5598V18.055H62.6158V14.343H74.1358C75.5011 14.343 76.6851 14.5776 77.6878 15.047C78.7118 15.495 79.5011 16.1456 80.0558 16.999C80.6318 17.831 80.9198 18.8336 80.9198 20.007V20.327C80.9198 21.351 80.7278 22.1936 80.3438 22.855C79.9598 23.495 79.5011 23.9963 78.9678 24.359C78.4558 24.7003 77.9651 24.9456 77.4958 25.095V25.671C77.9651 25.799 78.4771 26.0443 79.0318 26.407C79.5864 26.7483 80.0558 27.2496 80.4398 27.911C80.8451 28.5723 81.0478 29.4363 81.0478 30.503V30.823C81.0478 32.0603 80.7598 33.127 80.1838 34.023C79.6078 34.8976 78.8078 35.5696 77.7838 36.039C76.7811 36.5083 75.6078 36.743 74.2638 36.743H62.6158ZM69.7838 32.903H73.7518C74.6691 32.903 75.4051 32.679 75.9598 32.231C76.5358 31.783 76.8238 31.143 76.8238 30.311V29.991C76.8238 29.159 76.5464 28.519 75.9918 28.071C75.4371 27.623 74.6904 27.399 73.7518 27.399H69.7838V32.903ZM69.7838 23.559H73.6878C74.5624 23.559 75.2771 23.335 75.8318 22.887C76.4078 22.439 76.6958 21.8203 76.6958 21.031V20.711C76.6958 19.9003 76.4184 19.2816 75.8638 18.855C75.3091 18.407 74.5838 18.183 73.6878 18.183H69.7838V23.559ZM92.1858 37.191C90.6071 37.191 89.1884 36.871 87.9298 36.231C86.6711 35.591 85.6791 34.663 84.9538 33.447C84.2284 32.231 83.8658 30.7696 83.8658 29.063V28.551C83.8658 26.8443 84.2284 25.383 84.9538 24.167C85.6791 22.951 86.6711 22.023 87.9298 21.383C89.1884 20.743 90.6071 20.423 92.1858 20.423C93.7644 20.423 95.1831 20.743 96.4418 21.383C97.7004 22.023 98.6924 22.951 99.4178 24.167C100.143 25.383 100.506 26.8443 100.506 28.551V29.063C100.506 30.7696 100.143 32.231 99.4178 33.447C98.6924 34.663 97.7004 35.591 96.4418 36.231C95.1831 36.871 93.7644 37.191 92.1858 37.191ZM92.1858 33.607C93.4231 33.607 94.4471 33.2123 95.2578 32.423C96.0684 31.6123 96.4738 30.4603 96.4738 28.967V28.647C96.4738 27.1536 96.0684 26.0123 95.2578 25.223C94.4684 24.4123 93.4444 24.007 92.1858 24.007C90.9484 24.007 89.9244 24.4123 89.1138 25.223C88.3031 26.0123 87.8978 27.1536 87.8978 28.647V28.967C87.8978 30.4603 88.3031 31.6123 89.1138 32.423C89.9244 33.2123 90.9484 33.607 92.1858 33.607ZM104.228 36.743V20.871H108.196V22.951H108.772C109.028 22.3963 109.508 21.8736 110.212 21.383C110.916 20.871 111.982 20.615 113.412 20.615C114.649 20.615 115.726 20.903 116.644 21.479C117.582 22.0336 118.308 22.8123 118.82 23.815C119.332 24.7963 119.588 25.9483 119.588 27.271V36.743H115.556V27.591C115.556 26.3963 115.257 25.5003 114.66 24.903C114.084 24.3056 113.252 24.007 112.164 24.007C110.926 24.007 109.966 24.423 109.284 25.255C108.601 26.0656 108.26 27.207 108.26 28.679V36.743H104.228ZM130.538 37.191C128.469 37.191 126.773 36.743 125.45 35.847C124.128 34.951 123.328 33.671 123.05 32.007L126.762 31.047C126.912 31.7936 127.157 32.3803 127.498 32.807C127.861 33.2336 128.298 33.543 128.81 33.735C129.344 33.9056 129.92 33.991 130.538 33.991C131.477 33.991 132.17 33.831 132.618 33.511C133.066 33.1696 133.29 32.7536 133.29 32.263C133.29 31.7723 133.077 31.399 132.65 31.143C132.224 30.8656 131.541 30.6416 130.602 30.471L129.706 30.311C128.597 30.0976 127.584 29.8096 126.666 29.447C125.749 29.063 125.013 28.5403 124.458 27.879C123.904 27.2176 123.626 26.3643 123.626 25.319C123.626 23.7403 124.202 22.535 125.354 21.703C126.506 20.8496 128.021 20.423 129.898 20.423C131.669 20.423 133.141 20.8176 134.314 21.607C135.488 22.3963 136.256 23.431 136.618 24.711L132.874 25.863C132.704 25.0523 132.352 24.4763 131.818 24.135C131.306 23.7936 130.666 23.623 129.898 23.623C129.13 23.623 128.544 23.7616 128.138 24.039C127.733 24.295 127.53 24.6576 127.53 25.127C127.53 25.639 127.744 26.023 128.17 26.279C128.597 26.5136 129.173 26.695 129.898 26.823L130.794 26.983C131.989 27.1963 133.066 27.4843 134.026 27.847C135.008 28.1883 135.776 28.6896 136.33 29.351C136.906 29.991 137.194 30.8656 137.194 31.975C137.194 33.639 136.586 34.9296 135.37 35.847C134.176 36.743 132.565 37.191 130.538 37.191ZM145.531 37.191C144.4 37.191 143.387 36.999 142.491 36.615C141.595 36.2096 140.88 35.6336 140.347 34.887C139.835 34.119 139.579 33.191 139.579 32.103C139.579 31.015 139.835 30.1083 140.347 29.383C140.88 28.6363 141.605 28.0816 142.523 27.719C143.461 27.335 144.528 27.143 145.723 27.143H150.075V26.247C150.075 25.5003 149.84 24.8923 149.371 24.423C148.901 23.9323 148.155 23.687 147.131 23.687C146.128 23.687 145.381 23.9216 144.891 24.391C144.4 24.839 144.08 25.4256 143.931 26.151L140.219 24.903C140.475 24.0923 140.88 23.3563 141.435 22.695C142.011 22.0123 142.768 21.4683 143.707 21.063C144.667 20.6363 145.829 20.423 147.195 20.423C149.285 20.423 150.939 20.9456 152.155 21.991C153.371 23.0363 153.979 24.551 153.979 26.535V32.455C153.979 33.095 154.277 33.415 154.875 33.415H156.155V36.743H153.467C152.677 36.743 152.027 36.551 151.515 36.167C151.003 35.783 150.747 35.271 150.747 34.631V34.599H150.139C150.053 34.855 149.861 35.1963 149.563 35.623C149.264 36.0283 148.795 36.391 148.155 36.711C147.515 37.031 146.64 37.191 145.531 37.191ZM146.235 33.927C147.365 33.927 148.283 33.6176 148.987 32.999C149.712 32.359 150.075 31.5163 150.075 30.471V30.151H146.011C145.264 30.151 144.677 30.311 144.251 30.631C143.824 30.951 143.611 31.399 143.611 31.975C143.611 32.551 143.835 33.0203 144.283 33.383C144.731 33.7456 145.381 33.927 146.235 33.927ZM159.103 36.743V20.871H163.135V36.743H159.103ZM161.119 19.015C160.393 19.015 159.775 18.7803 159.263 18.311C158.772 17.8416 158.527 17.223 158.527 16.455C158.527 15.687 158.772 15.0683 159.263 14.599C159.775 14.1296 160.393 13.895 161.119 13.895C161.865 13.895 162.484 14.1296 162.975 14.599C163.465 15.0683 163.711 15.687 163.711 16.455C163.711 17.223 163.465 17.8416 162.975 18.311C162.484 18.7803 161.865 19.015 161.119 19.015Z" fill="#1F1904"/>
<path d="M167.475 36.743V14.343H171.699V32.903H181.939V36.743H167.475ZM192.498 37.191C190.92 37.191 189.501 36.871 188.242 36.231C186.984 35.591 185.992 34.663 185.266 33.447C184.541 32.231 184.178 30.7696 184.178 29.063V28.551C184.178 26.8443 184.541 25.383 185.266 24.167C185.992 22.951 186.984 22.023 188.242 21.383C189.501 20.743 190.92 20.423 192.498 20.423C194.077 20.423 195.496 20.743 196.754 21.383C198.013 22.023 199.005 22.951 199.73 24.167C200.456 25.383 200.818 26.8443 200.818 28.551V29.063C200.818 30.7696 200.456 32.231 199.73 33.447C199.005 34.663 198.013 35.591 196.754 36.231C195.496 36.871 194.077 37.191 192.498 37.191ZM192.498 33.607C193.736 33.607 194.76 33.2123 195.57 32.423C196.381 31.6123 196.786 30.4603 196.786 28.967V28.647C196.786 27.1536 196.381 26.0123 195.57 25.223C194.781 24.4123 193.757 24.007 192.498 24.007C191.261 24.007 190.237 24.4123 189.426 25.223C188.616 26.0123 188.21 27.1536 188.21 28.647V28.967C188.21 30.4603 188.616 31.6123 189.426 32.423C190.237 33.2123 191.261 33.607 192.498 33.607ZM207.399 36.743L202.343 20.871H206.631L210.311 33.799H210.887L214.567 20.871H218.855L213.799 36.743H207.399ZM228.366 37.191C226.787 37.191 225.39 36.8603 224.174 36.199C222.979 35.5163 222.04 34.567 221.358 33.351C220.696 32.1136 220.366 30.663 220.366 28.999V28.615C220.366 26.951 220.696 25.511 221.358 24.295C222.019 23.0576 222.947 22.1083 224.142 21.447C225.336 20.7643 226.723 20.423 228.302 20.423C229.859 20.423 231.214 20.775 232.366 21.479C233.518 22.1616 234.414 23.1216 235.054 24.359C235.694 25.575 236.014 26.9936 236.014 28.615V29.991H224.462C224.504 31.079 224.91 31.9643 225.678 32.647C226.446 33.3296 227.384 33.671 228.494 33.671C229.624 33.671 230.456 33.4256 230.99 32.935C231.523 32.4443 231.928 31.9003 232.206 31.303L235.502 33.031C235.203 33.5856 234.766 34.1936 234.19 34.855C233.635 35.495 232.888 36.0496 231.95 36.519C231.011 36.967 229.816 37.191 228.366 37.191ZM224.494 26.983H231.918C231.832 26.0656 231.459 25.3296 230.798 24.775C230.158 24.2203 229.315 23.943 228.27 23.943C227.182 23.943 226.318 24.2203 225.678 24.775C225.038 25.3296 224.643 26.0656 224.494 26.983ZM239.603 36.743V20.871H243.571V22.663H244.147C244.381 22.023 244.765 21.5536 245.299 21.255C245.853 20.9563 246.493 20.807 247.219 20.807H249.139V24.391H247.155C246.131 24.391 245.288 24.6683 244.627 25.223C243.965 25.7563 243.635 26.5883 243.635 27.719V36.743H239.603ZM258.507 37.191C256.438 37.191 254.742 36.743 253.419 35.847C252.096 34.951 251.296 33.671 251.019 32.007L254.731 31.047C254.88 31.7936 255.126 32.3803 255.467 32.807C255.83 33.2336 256.267 33.543 256.779 33.735C257.312 33.9056 257.888 33.991 258.507 33.991C259.446 33.991 260.139 33.831 260.587 33.511C261.035 33.1696 261.259 32.7536 261.259 32.263C261.259 31.7723 261.046 31.399 260.619 31.143C260.192 30.8656 259.51 30.6416 258.571 30.471L257.675 30.311C256.566 30.0976 255.552 29.8096 254.635 29.447C253.718 29.063 252.982 28.5403 252.427 27.879C251.872 27.2176 251.595 26.3643 251.595 25.319C251.595 23.7403 252.171 22.535 253.323 21.703C254.475 20.8496 255.99 20.423 257.867 20.423C259.638 20.423 261.11 20.8176 262.283 21.607C263.456 22.3963 264.224 23.431 264.587 24.711L260.843 25.863C260.672 25.0523 260.32 24.4763 259.787 24.135C259.275 23.7936 258.635 23.623 257.867 23.623C257.099 23.623 256.512 23.7616 256.107 24.039C255.702 24.295 255.499 24.6576 255.499 25.127C255.499 25.639 255.712 26.023 256.139 26.279C256.566 26.5136 257.142 26.695 257.867 26.823L258.763 26.983C259.958 27.1963 261.035 27.4843 261.995 27.847C262.976 28.1883 263.744 28.6896 264.299 29.351C264.875 29.991 265.163 30.8656 265.163 31.975C265.163 33.639 264.555 34.9296 263.339 35.847C262.144 36.743 260.534 37.191 258.507 37.191Z" fill="#524A2A"/>
</svg>
